<svg width="34" height="34" viewBox="0 0 34 34" fill="none" xmlns="http://www.w3.org/2000/svg">
<path d="M32.8543 13.5835C32.5909 13.3201 32.2335 13.1721 31.861 13.1721C31.4884 13.1721 31.1311 13.3201 30.8676 13.5835L15.5635 28.9536C14.9112 29.6061 14.1367 30.1236 13.2843 30.4768C12.4319 30.8299 11.5183 31.0117 10.5957 31.0118C8.73231 31.0119 6.94522 30.2718 5.62753 28.9543C4.30985 27.6368 3.56951 25.8498 3.56937 23.9865C3.56924 22.1231 4.30933 20.336 5.62683 19.0184L20.4489 4.13581C21.2415 3.35585 22.3102 2.92066 23.4222 2.92506C24.5342 2.92946 25.5994 3.37308 26.3858 4.15929C27.1722 4.9455 27.6161 6.0106 27.6207 7.12259C27.6254 8.23458 27.1905 9.30336 26.4107 10.0961L11.5886 24.9787C11.3212 25.2348 10.9654 25.3777 10.5952 25.3777C10.225 25.3777 9.8691 25.2348 9.60178 24.9787C9.33837 24.7152 9.1904 24.3579 9.1904 23.9853C9.1904 23.6127 9.33837 23.2554 9.60178 22.9919L22.7982 9.73503C23.0542 9.47003 23.1958 9.11511 23.1926 8.7467C23.1894 8.3783 23.0416 8.02589 22.7811 7.76537C22.5206 7.50486 22.1682 7.35709 21.7998 7.35389C21.4314 7.35069 21.0765 7.49231 20.8115 7.74826L7.61501 21.0051C7.22351 21.3966 6.91296 21.8613 6.70108 22.3727C6.4892 22.8842 6.38015 23.4324 6.38015 23.986C6.38015 24.5396 6.4892 25.0878 6.70108 25.5992C6.91296 26.1107 7.22351 26.5754 7.61501 26.9669C8.41818 27.7333 9.4857 28.1609 10.5959 28.1609C11.706 28.1609 12.7736 27.7333 13.5767 26.9669L28.3974 12.0829C29.6873 10.7598 30.4039 8.9817 30.3921 7.13392C30.3803 5.28614 29.6409 3.51741 28.3342 2.2109C27.0275 0.90438 25.2587 0.16528 23.4109 0.153703C21.5631 0.142125 19.7851 0.859002 18.4622 2.14904L3.64006 17.0316C1.79545 18.8762 0.759155 21.378 0.759155 23.9867C0.759155 26.5954 1.79545 29.0972 3.64006 30.9418C5.48467 32.7864 7.9865 33.8227 10.5952 33.8227C13.2038 33.8227 15.7057 32.7864 17.5503 30.9418L32.8543 15.5759C32.9856 15.4454 33.0898 15.2901 33.1609 15.1192C33.232 14.9482 33.2685 14.7649 33.2685 14.5797C33.2685 14.3946 33.232 14.2112 33.1609 14.0403C33.0898 13.8693 32.9856 13.7141 32.8543 13.5835Z" fill="#6E6E6E"/>
</svg>
