<svg width="46" height="35" viewBox="0 0 46 35" fill="none" xmlns="http://www.w3.org/2000/svg">
<path d="M0.285767 2.60709C0.285767 1.56602 1.13755 0.714233 2.17862 0.714233H34.3572C35.3983 0.714233 36.2501 1.56602 36.2501 2.60709C36.2501 3.64816 35.3983 4.49995 34.3572 4.49995H2.17862C1.13755 4.49995 0.285767 3.64816 0.285767 2.60709ZM34.3572 30.9999H2.17862C1.13755 30.9999 0.285767 31.8517 0.285767 32.8928C0.285767 33.9339 1.13755 34.7857 2.17862 34.7857H34.3572C35.3983 34.7857 36.2501 33.9339 36.2501 32.8928C36.2501 31.8517 35.3983 30.9999 34.3572 30.9999ZM43.8215 15.8571H11.6429C10.6018 15.8571 9.75005 16.7089 9.75005 17.7499C9.75005 18.791 10.6018 19.6428 11.6429 19.6428H43.8215C44.8626 19.6428 45.7143 18.791 45.7143 17.7499C45.7143 16.7089 44.8626 15.8571 43.8215 15.8571Z" fill="#1E1E1E"/>
</svg>
