<svg width="56" height="34" viewBox="0 0 56 34" fill="none" xmlns="http://www.w3.org/2000/svg">
<path d="M44.2383 0H11.6417C5.21314 0 0 4.70369 0 10.5087V23.1191C0 28.922 5.21314 33.6278 11.6417 33.6278H44.2383C50.6576 33.6278 55.88 28.9136 55.88 23.1191V10.5087C55.88 4.7142 50.6576 0 44.2383 0ZM18.9061 25.2209C18.147 25.2209 17.4881 24.748 17.3181 24.0796L16.7011 21.6479H11.0922L10.4542 24.088C10.2796 24.7522 9.62533 25.2209 8.86862 25.2209C7.81854 25.2209 7.04321 24.3361 7.28303 23.4134L10.573 10.8177C11.041 8.99755 13.2203 7.86261 15.36 8.67178C16.3822 9.0585 17.069 9.94543 17.3205 10.9206L20.494 23.4218C20.7268 24.3424 19.9538 25.2209 18.9061 25.2209ZM51.2233 23.1191C51.2233 26.5954 48.0894 29.4244 44.2383 29.4244H27.94V4.20348H44.2383C48.0894 4.20348 51.2233 7.03242 51.2233 10.5087V23.1191ZM47.7308 11.8034V11.8475C47.7308 12.5621 47.0882 13.1422 46.2966 13.1422H45.5608C45.2791 15.8219 44.1242 18.882 41.8192 21.2675C43.0812 21.959 44.5946 22.4529 46.4386 22.6105C47.172 22.6736 47.7308 23.2326 47.7308 23.8989V23.943C47.7308 24.7123 46.9951 25.3049 46.1476 25.2314C43.5003 25.0023 41.3535 24.2036 39.6096 23.0834C37.8564 24.2141 35.684 25.0065 33.0158 25.2314C32.1683 25.3028 31.4348 24.7102 31.4348 23.9409V23.8968C31.4348 23.2221 32.0123 22.6694 32.7573 22.6063C34.592 22.4487 36.1055 21.9611 37.3604 21.2717C36.5898 20.4752 35.9471 19.6029 35.4209 18.6929C34.925 17.8354 35.6282 16.8097 36.6992 16.8097H36.7225C37.2487 16.8097 37.74 17.0661 37.9821 17.4865C38.4128 18.2263 38.9507 18.9388 39.5956 19.5924C41.5002 17.6588 42.371 15.162 42.6295 13.138H32.8714C32.0798 13.138 31.4372 12.5579 31.4372 11.8433V11.7992C31.4372 11.0846 32.0798 10.5045 32.8714 10.5045H38.1265V9.69743C38.1265 8.98284 38.7691 8.40276 39.5607 8.40276H39.6096C40.4012 8.40276 41.0439 8.98284 41.0439 9.69743V10.5045H46.2989C47.0905 10.5045 47.7332 11.0846 47.7332 11.7992L47.7308 11.8034ZM14.1213 11.4818L15.9537 18.7055H11.8629L13.7511 11.4818C13.7721 11.404 13.8466 11.3494 13.9351 11.3494C14.0236 11.3494 14.1027 11.404 14.1213 11.4818Z" fill="white"/>
</svg>
