<svg width="149" height="37" viewBox="0 0 149 37" fill="none" xmlns="http://www.w3.org/2000/svg">
<path d="M56.4256 35.6583C55.1879 35.6583 54.0644 35.3441 53.0552 34.7158C52.065 34.0874 51.2748 33.24 50.6845 32.1736C50.1132 31.0883 49.8276 29.8791 49.8276 28.5461C49.8276 27.1942 50.1132 25.985 50.6845 24.9186C51.2748 23.8333 52.065 22.9764 53.0552 22.348C54.0644 21.7006 55.1879 21.3768 56.4256 21.3768C57.473 21.3768 58.3965 21.6053 59.1963 22.0624C60.0151 22.5003 60.6625 23.1097 61.1385 23.8904C61.6146 24.6711 61.8526 25.5566 61.8526 26.5467V30.4884C61.8526 31.4786 61.6146 32.3641 61.1385 33.1448C60.6815 33.9255 60.0436 34.5444 59.2248 35.0014C58.406 35.4394 57.473 35.6583 56.4256 35.6583ZM56.9398 32.6878C57.7205 32.6878 58.3965 32.5164 58.9677 32.1736C59.558 31.8119 60.0151 31.3168 60.3388 30.6884C60.6625 30.06 60.8243 29.3364 60.8243 28.5176C60.8243 27.6988 60.6625 26.9752 60.3388 26.3468C60.0151 25.7184 59.558 25.2328 58.9677 24.8901C58.3965 24.5283 57.7205 24.3474 56.9398 24.3474C56.1781 24.3474 55.5021 24.5283 54.9118 24.8901C54.3405 25.2328 53.8835 25.7184 53.5408 26.3468C53.2171 26.9752 53.0552 27.6988 53.0552 28.5176C53.0552 29.3364 53.2171 30.06 53.5408 30.6884C53.8835 31.3168 54.3405 31.8119 54.9118 32.1736C55.5021 32.5164 56.1781 32.6878 56.9398 32.6878ZM63.7663 35.3727H60.6244V31.6881L61.1671 28.3462L60.6244 25.0329V14.8074H63.7663V35.3727ZM73.6228 35.6583C72.2518 35.6583 71.014 35.3537 69.9096 34.7443C68.8242 34.1159 67.9578 33.259 67.3104 32.1736C66.682 31.0883 66.3678 29.8696 66.3678 28.5176C66.3678 27.1656 66.682 25.9564 67.3104 24.8901C67.9388 23.8047 68.7861 22.9478 69.8525 22.3194C70.9379 21.691 72.1375 21.3768 73.4514 21.3768C74.7272 21.3768 75.8507 21.672 76.8218 22.2623C77.812 22.8526 78.5832 23.6619 79.1354 24.6901C79.7067 25.7184 79.9923 26.8895 79.9923 28.2034C79.9923 28.4319 79.9733 28.6699 79.9352 28.9175C79.9162 29.146 79.8781 29.403 79.821 29.6887H68.5671V27.118H78.1929L77.0218 28.1463C76.9837 27.3084 76.8218 26.6039 76.5362 26.0326C76.2506 25.4613 75.8412 25.0234 75.308 24.7187C74.7939 24.414 74.156 24.2617 73.3943 24.2617C72.5945 24.2617 71.8995 24.4331 71.3092 24.7758C70.7189 25.1186 70.2619 25.6042 69.9382 26.2325C69.6145 26.8419 69.4526 27.575 69.4526 28.4319C69.4526 29.2888 69.624 30.0409 69.9667 30.6884C70.3095 31.3358 70.7951 31.8404 71.4234 32.2022C72.0518 32.545 72.7754 32.7163 73.5942 32.7163C74.2988 32.7163 74.9462 32.5926 75.5365 32.345C76.1459 32.0975 76.66 31.7357 77.0789 31.2596L79.0783 33.2876C78.4119 34.0683 77.6026 34.6586 76.6505 35.0585C75.6984 35.4584 74.6891 35.6583 73.6228 35.6583ZM86.3425 35.3727L80.8298 21.6625H84.086L87.7992 31.631L86.828 31.6595L90.4555 21.6625H92.2836L95.9111 31.6595L94.9399 31.631L98.6531 21.6625H101.909L96.3966 35.3727H94.5686L90.8554 25.8898H91.8837L88.1705 35.3727H86.3425ZM113.275 35.3727V27.4608C113.275 26.5467 112.98 25.7946 112.389 25.2043C111.818 24.614 111.075 24.3188 110.161 24.3188C109.552 24.3188 109.009 24.4521 108.533 24.7187C108.057 24.9853 107.686 25.3566 107.419 25.8327C107.153 26.3087 107.019 26.8514 107.019 27.4608L105.791 26.7752C105.791 25.7279 106.02 24.8044 106.477 24.0046C106.934 23.1858 107.562 22.5479 108.362 22.0909C109.181 21.6149 110.095 21.3768 111.104 21.3768C112.132 21.3768 113.046 21.6434 113.846 22.1766C114.646 22.6907 115.274 23.3667 115.731 24.2046C116.188 25.0234 116.417 25.8803 116.417 26.7752V35.3727H113.275ZM103.877 35.3727V21.6625H107.019V35.3727H103.877ZM122.009 35.6583C121.399 35.6583 120.895 35.4584 120.495 35.0585C120.114 34.6396 119.924 34.135 119.924 33.5447C119.924 32.9353 120.114 32.4307 120.495 32.0308C120.895 31.631 121.399 31.431 122.009 31.431C122.618 31.431 123.113 31.631 123.494 32.0308C123.894 32.4307 124.094 32.9353 124.094 33.5447C124.094 34.135 123.894 34.6396 123.494 35.0585C123.113 35.4584 122.618 35.6583 122.009 35.6583ZM133.161 35.6583C131.923 35.6583 130.8 35.3441 129.79 34.7158C128.8 34.0874 128.01 33.24 127.42 32.1736C126.848 31.0883 126.563 29.8791 126.563 28.5461C126.563 27.1942 126.848 25.985 127.42 24.9186C128.01 23.8333 128.8 22.9764 129.79 22.348C130.8 21.7006 131.923 21.3768 133.161 21.3768C134.208 21.3768 135.132 21.6053 135.931 22.0624C136.75 22.5003 137.398 23.1097 137.874 23.8904C138.35 24.6711 138.588 25.5566 138.588 26.5467V30.4884C138.588 31.4786 138.35 32.3641 137.874 33.1448C137.417 33.9255 136.779 34.5444 135.96 35.0014C135.141 35.4394 134.208 35.6583 133.161 35.6583ZM133.675 32.6878C134.836 32.6878 135.77 32.2974 136.474 31.5167C137.198 30.736 137.559 29.7363 137.559 28.5176C137.559 27.6988 137.398 26.9752 137.074 26.3468C136.75 25.7184 136.293 25.2328 135.703 24.8901C135.132 24.5283 134.456 24.3474 133.675 24.3474C132.913 24.3474 132.237 24.5283 131.647 24.8901C131.076 25.2328 130.619 25.7184 130.276 26.3468C129.952 26.9752 129.79 27.6988 129.79 28.5176C129.79 29.3364 129.952 30.06 130.276 30.6884C130.619 31.3168 131.076 31.8119 131.647 32.1736C132.237 32.5164 132.913 32.6878 133.675 32.6878ZM137.36 35.3727V31.6881L137.902 28.3462L137.36 25.0329V21.6625H140.501V35.3727H137.36ZM144.017 35.3727V21.6625H147.159V35.3727H144.017ZM145.588 19.1489C145.055 19.1489 144.607 18.968 144.245 18.6062C143.903 18.2444 143.731 17.7969 143.731 17.2638C143.731 16.7306 143.903 16.2831 144.245 15.9213C144.607 15.5595 145.055 15.3786 145.588 15.3786C146.14 15.3786 146.588 15.5595 146.93 15.9213C147.273 16.2831 147.444 16.7306 147.444 17.2638C147.444 17.7969 147.273 18.2444 146.93 18.6062C146.588 18.968 146.14 19.1489 145.588 19.1489Z" fill="white"/>
<rect x="1.41183" y="1.41183" width="10.5832" height="34.1002" rx="5.29158" fill="#707FFF" stroke="#C4C9FF" stroke-width="1.17634"/>
<rect x="28.5341" y="10.6441" width="9.40683" height="24.2798" rx="4.70341" fill="#707FFF"/>
<rect x="15.2651" y="16.0535" width="9.41071" height="18.8214" rx="4.70536" fill="#9DA6FF"/>
<rect x="17.1021" y="7.71367" width="5.8817" height="5.8817" rx="2.94085" fill="#9DA6FF" stroke="#C4C9FF" stroke-width="1.17634"/>
</svg>
