<svg width="35" height="35" viewBox="0 0 35 35" fill="none" xmlns="http://www.w3.org/2000/svg">
<path d="M0.665753 5.5302C0.120553 4.03793 0.530858 2.38547 1.71259 1.32177C2.89151 0.262289 4.57067 0.0234128 5.99549 0.716153L31.4147 12.5813C32.7777 13.2192 33.7529 14.3841 34.1477 15.7752H6.11212L0.745846 5.70866C0.716338 5.65105 0.68964 5.59063 0.665753 5.5302ZM6.13179 18.5869L0.858258 28.6688C0.82875 28.7251 0.803457 28.7813 0.78238 28.8403C0.238586 30.334 0.653106 31.9836 1.83484 33.0459C2.56692 33.7021 3.49151 34.0407 4.42172 34.0407C4.99643 34.0407 5.57254 33.9115 6.10931 33.6487L31.4175 21.792C32.7847 21.1513 33.7585 19.9822 34.1505 18.5883L6.13179 18.5869Z" fill="#6E6E6E"/>
</svg>
