<svg width="56" height="51" viewBox="0 0 56 51" fill="none" xmlns="http://www.w3.org/2000/svg">
<path d="M46.5023 35.3068L46.7351 35.517C47.2636 35.9982 47.9184 36.3509 48.6384 36.5423C49.3585 36.7337 50.1205 36.7577 50.8536 36.6119C51.5748 36.4753 52.2464 36.1771 52.8066 35.7449C53.3668 35.3126 53.7976 34.7602 54.0594 34.1384C55.3448 31.0917 55.9593 27.8479 55.8684 24.5889C55.6064 18.1875 52.6896 12.1087 47.6962 7.55719C42.7027 3.00573 35.9971 0.313891 28.9085 0.0152321C25.1602 -0.102417 21.424 0.462425 17.9227 1.67608C14.4213 2.88974 11.2266 4.72737 8.52883 7.0794C5.8311 9.43144 3.68563 12.2497 2.22033 15.3663C0.75504 18.4828 -7.73701e-05 21.8337 5.94587e-09 25.2193C0.00862629 31.9054 2.95482 38.3153 8.19229 43.0431C13.4298 47.7709 20.5308 50.4303 27.9377 50.4381C28.7246 50.4381 29.4975 50.3919 30.2658 50.333C30.8488 50.2887 31.3919 50.0478 31.7871 49.6584C32.1822 49.269 32.4005 48.7596 32.3984 48.2315L32.3239 40.6911C32.3051 39.201 32.7786 37.7397 33.6841 36.4937C34.5896 35.2477 35.8859 34.2736 37.4076 33.6957C38.9292 33.1179 40.6072 32.9625 42.2271 33.2495C43.847 33.5364 45.3354 34.2527 46.5023 35.3068ZM39.6529 16.9181C40.3204 16.7582 41.0255 16.7806 41.679 16.9824C42.3324 17.1842 42.9049 17.5564 43.3241 18.0519C43.7432 18.5474 43.9902 19.1439 44.0338 19.7661C44.0774 20.3883 43.9156 21.0082 43.5689 21.5474C43.2222 22.0866 42.7062 22.5209 42.0861 22.7954C41.466 23.0699 40.7697 23.1722 40.0851 23.0895C39.4006 23.0068 38.7586 22.7427 38.2403 22.3306C37.7221 21.9186 37.3508 21.377 37.1734 20.7745C37.0556 20.3743 37.0263 19.9571 37.0872 19.5467C37.1481 19.1363 37.2979 18.7408 37.5282 18.3827C37.7584 18.0246 38.0646 17.7109 38.4291 17.4596C38.7937 17.2083 39.2095 17.0243 39.6529 16.9181ZM18.1642 35.6221C17.4966 35.782 16.7915 35.7596 16.1381 35.5578C15.4846 35.356 14.9121 34.9838 14.493 34.4883C14.0738 33.9928 13.8268 33.3963 13.7833 32.7741C13.7397 32.1519 13.9015 31.532 14.2481 30.9928C14.5948 30.4536 15.1108 30.0193 15.7309 29.7448C16.351 29.4703 17.0474 29.368 17.7319 29.4507C18.4165 29.5334 19.0584 29.7975 19.5767 30.2096C20.095 30.6216 20.4663 31.1632 20.6436 31.7657C20.7614 32.1659 20.7907 32.5831 20.7298 32.9935C20.669 33.4039 20.5191 33.7994 20.2889 34.1575C20.0586 34.5156 19.7525 34.8293 19.3879 35.0806C19.0233 35.3319 18.6075 35.5159 18.1642 35.6221ZM18.1642 23.0127C17.4966 23.1726 16.7915 23.1502 16.1381 22.9484C15.4846 22.7466 14.9121 22.3744 14.493 21.8789C14.0738 21.3834 13.8268 20.7869 13.7833 20.1647C13.7397 19.5425 13.9015 18.9226 14.2481 18.3834C14.5948 17.8442 15.1108 17.4099 15.7309 17.1354C16.351 16.8609 17.0474 16.7586 17.7319 16.8413C18.4165 16.924 19.0584 17.1881 19.5767 17.6002C20.095 18.0122 20.4663 18.5538 20.6436 19.1563C20.7614 19.5565 20.7907 19.9737 20.7298 20.3841C20.669 20.7945 20.5191 21.19 20.2889 21.5481C20.0586 21.9062 19.7525 22.2199 19.3879 22.4712C19.0233 22.7225 18.6075 22.9065 18.1642 23.0127ZM29.8049 16.708C29.1373 16.8679 28.4322 16.8455 27.7788 16.6437C27.1253 16.4419 26.5528 16.0697 26.1337 15.5742C25.7145 15.0787 25.4675 14.4822 25.424 13.86C25.3804 13.2378 25.5422 12.6179 25.8888 12.0787C26.2355 11.5395 26.7515 11.1052 27.3716 10.8307C27.9917 10.5562 28.6881 10.4539 29.3726 10.5366C30.0572 10.6193 30.6992 10.8834 31.2174 11.2955C31.7357 11.7075 32.107 12.2491 32.2843 12.8516C32.4021 13.2518 32.4314 13.669 32.3705 14.0794C32.3097 14.4898 32.1598 14.8853 31.9296 15.2434C31.6993 15.6015 31.3932 15.9152 31.0286 16.1665C30.6641 16.4178 30.2482 16.6018 29.8049 16.708Z" fill="white"/>
</svg>
