<svg width="39" height="39" viewBox="0 0 39 39" fill="none" xmlns="http://www.w3.org/2000/svg">
<path d="M32.1593 27.358L32.3175 27.5162C32.6767 27.8784 33.1216 28.1439 33.6108 28.288C34.1001 28.4321 34.6179 28.4501 35.116 28.3404C35.6061 28.2375 36.0624 28.0131 36.4431 27.6877C36.8237 27.3624 37.1164 26.9465 37.2943 26.4784C38.1678 24.1851 38.5853 21.7433 38.5235 19.2901C38.3455 14.4715 36.3635 9.89563 32.9706 6.46953C29.5776 3.04343 25.0212 1.01716 20.2046 0.79235C17.6576 0.70379 15.1189 1.12897 12.7398 2.04255C10.3607 2.95613 8.18985 4.33939 6.35677 6.10988C4.52369 7.88037 3.06587 10.0018 2.07022 12.3478C1.07457 14.6937 0.561471 17.2161 0.561523 19.7646C0.567385 24.7975 2.56929 29.6226 6.1281 33.1814C9.6869 36.7402 14.512 38.7421 19.5449 38.748C20.0796 38.748 20.6048 38.7132 21.1268 38.6689C21.523 38.6355 21.892 38.4542 22.1605 38.1611C22.429 37.868 22.5773 37.4845 22.5759 37.087L22.5253 31.4109C22.5125 30.2893 22.8342 29.1893 23.4495 28.2514C24.0648 27.3134 24.9456 26.5802 25.9796 26.1452C27.0135 25.7102 28.1537 25.5933 29.2544 25.8093C30.3551 26.0253 31.3665 26.5645 32.1593 27.358ZM27.5052 13.516C27.9588 13.3956 28.4379 13.4124 28.8819 13.5643C29.326 13.7163 29.715 13.9964 29.9998 14.3694C30.2846 14.7424 30.4524 15.1914 30.482 15.6598C30.5116 16.1281 30.4017 16.5947 30.1661 17.0006C29.9306 17.4065 29.5799 17.7334 29.1586 17.94C28.7372 18.1467 28.2641 18.2237 27.7989 18.1614C27.3338 18.0992 26.8976 17.9004 26.5454 17.5902C26.1933 17.28 25.941 16.8724 25.8205 16.4188C25.7404 16.1176 25.7205 15.8035 25.7619 15.4946C25.8033 15.1857 25.9051 14.8879 26.0615 14.6184C26.218 14.3488 26.426 14.1127 26.6737 13.9235C26.9214 13.7344 27.204 13.5959 27.5052 13.516ZM12.9039 27.5953C12.4503 27.7156 11.9712 27.6988 11.5272 27.5469C11.0832 27.395 10.6941 27.1148 10.4093 26.7418C10.1245 26.3689 9.95671 25.9198 9.9271 25.4515C9.89749 24.9831 10.0074 24.5165 10.243 24.1106C10.4785 23.7047 10.8292 23.3778 11.2505 23.1712C11.6719 22.9646 12.145 22.8875 12.6102 22.9498C13.0753 23.0121 13.5115 23.2109 13.8637 23.521C14.2159 23.8312 14.4681 24.2389 14.5886 24.6924C14.6687 24.9936 14.6886 25.3077 14.6472 25.6166C14.6059 25.9255 14.5041 26.2233 14.3476 26.4928C14.1911 26.7624 13.9831 26.9985 13.7354 27.1877C13.4877 27.3768 13.2051 27.5153 12.9039 27.5953ZM12.9039 18.1036C12.4503 18.224 11.9712 18.2071 11.5272 18.0552C11.0832 17.9033 10.6941 17.6231 10.4093 17.2502C10.1245 16.8772 9.95671 16.4281 9.9271 15.9598C9.89749 15.4914 10.0074 15.0248 10.243 14.6189C10.4785 14.213 10.8292 13.8861 11.2505 13.6795C11.6719 13.4729 12.145 13.3958 12.6102 13.4581C13.0753 13.5204 13.5115 13.7192 13.8637 14.0294C14.2159 14.3395 14.4681 14.7472 14.5886 15.2007C14.6687 15.502 14.6886 15.816 14.6472 16.1249C14.6059 16.4338 14.5041 16.7316 14.3476 17.0012C14.1911 17.2707 13.9831 17.5068 13.7354 17.696C13.4877 17.8852 13.2051 18.0237 12.9039 18.1036ZM20.8136 13.3578C20.36 13.4781 19.8809 13.4613 19.4369 13.3094C18.9929 13.1575 18.6039 12.8773 18.3191 12.5043C18.0343 12.1313 17.8664 11.6823 17.8368 11.2139C17.8072 10.7456 17.9172 10.279 18.1527 9.87308C18.3883 9.4672 18.7389 9.14028 19.1603 8.93366C19.5816 8.72704 20.0548 8.64999 20.5199 8.71227C20.985 8.77454 21.4213 8.97333 21.7734 9.28351C22.1256 9.59369 22.3779 10.0013 22.4984 10.4549C22.5784 10.7561 22.5983 11.0702 22.557 11.3791C22.5156 11.688 22.4138 11.9858 22.2573 12.2553C22.1009 12.5249 21.8929 12.761 21.6451 12.9502C21.3974 13.1393 21.1149 13.2778 20.8136 13.3578Z" fill="#6E6E6E"/>
</svg>
