<svg width="56" height="51" viewBox="0 0 56 51" fill="none" xmlns="http://www.w3.org/2000/svg">
<path d="M27.9678 16.3279C30.3191 14.2055 34.1602 14.1844 36.5347 16.3279L38.9558 18.5133C39.4912 18.9966 40.3991 18.9966 40.9345 18.5133L54.7859 6.01C52.9235 2.45864 48.8961 0 44.2635 0H23.2886C16.8635 0 11.6489 4.70713 11.6489 10.507V23.1154C11.6489 25.3639 12.4404 27.4443 13.7673 29.1464L27.9678 16.3279ZM22.1247 6.30419C24.0569 6.30419 25.6166 7.71213 25.6166 9.45629C25.6166 11.2005 24.0569 12.6084 22.1247 12.6084C20.1925 12.6084 18.6327 11.2005 18.6327 9.45629C18.6327 7.71213 20.1925 6.30419 22.1247 6.30419ZM28.7128 50.0553L8.5294 44.9909C2.33704 43.4359 -1.29456 37.636 0.428122 32.0463L4.17613 19.9002C4.71156 18.1771 5.6893 16.6641 6.99295 15.4453V23.1364C6.99295 31.2688 14.2795 37.8462 23.2886 37.8462H44.5661L43.053 42.7635C41.3303 48.3532 34.9051 51.6314 28.7128 50.0763V50.0553ZM55.88 10.9483V23.1154C55.88 28.9152 50.6654 33.6224 44.2402 33.6224H23.2886C21.0305 33.6224 18.9354 33.034 17.1428 32.0463L31.2502 19.3118C31.7857 18.8285 32.6936 18.8285 33.229 19.3118L35.6501 21.4973C37.9315 23.5567 41.9123 23.5567 44.1937 21.4973L55.88 10.9483Z" fill="white"/>
</svg>
