<svg width="208" height="50" viewBox="0 0 208 50" fill="none" xmlns="http://www.w3.org/2000/svg">
<path d="M78.0421 48.5087C76.3128 48.5087 74.7431 48.0697 73.3331 47.1918C71.9496 46.3138 70.8455 45.1299 70.0208 43.64C69.2226 42.1236 68.8235 40.4342 68.8235 38.5718C68.8235 36.6829 69.2226 34.9935 70.0208 33.5036C70.8455 31.9871 71.9496 30.7899 73.3331 29.912C74.7431 29.0074 76.3128 28.5551 78.0421 28.5551C79.5054 28.5551 80.7957 28.8744 81.9131 29.5129C83.0571 30.1248 83.9616 30.9762 84.6268 32.067C85.2919 33.1578 85.6244 34.3949 85.6244 35.7783V41.2855C85.6244 42.6689 85.2919 43.9061 84.6268 44.9969C83.9883 46.0877 83.097 46.9523 81.953 47.5908C80.809 48.2027 79.5054 48.5087 78.0421 48.5087ZM78.7604 44.3584C79.8512 44.3584 80.7957 44.1189 81.5938 43.64C82.4186 43.1345 83.0571 42.4428 83.5094 41.5649C83.9616 40.6869 84.1878 39.6759 84.1878 38.5319C84.1878 37.3879 83.9616 36.3769 83.5094 35.499C83.0571 34.621 82.4186 33.9426 81.5938 33.4637C80.7957 32.9582 79.8512 32.7055 78.7604 32.7055C77.6962 32.7055 76.7518 32.9582 75.927 33.4637C75.1289 33.9426 74.4904 34.621 74.0115 35.499C73.5592 36.3769 73.3331 37.3879 73.3331 38.5319C73.3331 39.6759 73.5592 40.6869 74.0115 41.5649C74.4904 42.4428 75.1289 43.1345 75.927 43.64C76.7518 44.1189 77.6962 44.3584 78.7604 44.3584ZM88.2982 48.1096H83.9084V42.9616L84.6667 38.2925L83.9084 33.6632V19.3765H88.2982V48.1096ZM102.069 48.5087C100.154 48.5087 98.4244 48.083 96.8814 47.2317C95.3649 46.3537 94.1544 45.1565 93.2498 43.64C92.3719 42.1236 91.9329 40.4208 91.9329 38.5319C91.9329 36.643 92.3719 34.9536 93.2498 33.4637C94.1278 31.9472 95.3117 30.75 96.8016 29.8721C98.318 28.9941 99.9941 28.5551 101.83 28.5551C103.612 28.5551 105.182 28.9675 106.539 29.7923C107.922 30.617 109 31.7477 109.771 33.1844C110.57 34.621 110.969 36.2572 110.969 38.0929C110.969 38.4122 110.942 38.7447 110.889 39.0906C110.862 39.4099 110.809 39.769 110.729 40.1681H95.0057V36.5765H108.454L106.818 38.0131C106.765 36.8425 106.539 35.8581 106.14 35.06C105.741 34.2618 105.169 33.6499 104.424 33.2243C103.705 32.7986 102.814 32.5857 101.75 32.5857C100.633 32.5857 99.6616 32.8252 98.8368 33.3041C98.0121 33.783 97.3736 34.4614 96.9213 35.3393C96.469 36.1907 96.2429 37.215 96.2429 38.4122C96.2429 39.6094 96.4823 40.6603 96.9612 41.5649C97.4401 42.4694 98.1185 43.1744 98.9964 43.6799C99.8744 44.1588 100.885 44.3983 102.029 44.3983C103.014 44.3983 103.918 44.2253 104.743 43.8795C105.594 43.5336 106.313 43.0281 106.898 42.363L109.692 45.1964C108.76 46.2872 107.63 47.1119 106.299 47.6706C104.969 48.2293 103.559 48.5087 102.069 48.5087ZM119.841 48.1096L112.139 28.9542H116.688L121.876 42.8818L120.519 42.9217L125.587 28.9542H128.141L133.21 42.9217L131.853 42.8818L137.041 28.9542H141.59L133.888 48.1096H131.334L126.146 34.8605H127.583L122.395 48.1096H119.841ZM157.469 48.1096V37.0553C157.469 35.7783 157.057 34.7274 156.232 33.9027C155.434 33.0779 154.397 32.6656 153.12 32.6656C152.268 32.6656 151.51 32.8518 150.845 33.2243C150.18 33.5967 149.661 34.1155 149.288 34.7806C148.916 35.4458 148.73 36.204 148.73 37.0553L147.014 36.0976C147.014 34.6343 147.333 33.344 147.972 32.2266C148.61 31.0826 149.488 30.1913 150.605 29.5528C151.749 28.8877 153.026 28.5551 154.436 28.5551C155.873 28.5551 157.15 28.9276 158.268 29.6725C159.385 30.3909 160.263 31.3353 160.901 32.5059C161.54 33.6499 161.859 34.8472 161.859 36.0976V48.1096H157.469ZM144.34 48.1096V28.9542H148.73V48.1096H144.34ZM169.672 48.5087C168.821 48.5087 168.116 48.2293 167.557 47.6706C167.025 47.0853 166.759 46.3803 166.759 45.5556C166.759 44.7042 167.025 43.9992 167.557 43.4405C168.116 42.8818 168.821 42.6024 169.672 42.6024C170.524 42.6024 171.215 42.8818 171.747 43.4405C172.306 43.9992 172.585 44.7042 172.585 45.5556C172.585 46.3803 172.306 47.0853 171.747 47.6706C171.215 48.2293 170.524 48.5087 169.672 48.5087ZM185.253 48.5087C183.524 48.5087 181.955 48.0697 180.544 47.1918C179.161 46.3138 178.057 45.1299 177.232 43.64C176.434 42.1236 176.035 40.4342 176.035 38.5718C176.035 36.6829 176.434 34.9935 177.232 33.5036C178.057 31.9871 179.161 30.7899 180.544 29.912C181.955 29.0074 183.524 28.5551 185.253 28.5551C186.717 28.5551 188.007 28.8744 189.124 29.5129C190.268 30.1248 191.173 30.9762 191.838 32.067C192.503 33.1578 192.836 34.3949 192.836 35.7783V41.2855C192.836 42.6689 192.503 43.9061 191.838 44.9969C191.2 46.0877 190.308 46.9523 189.164 47.5908C188.02 48.2027 186.717 48.5087 185.253 48.5087ZM185.972 44.3584C187.595 44.3584 188.898 43.813 189.883 42.7222C190.894 41.6314 191.399 40.2346 191.399 38.5319C191.399 37.3879 191.173 36.3769 190.721 35.499C190.268 34.621 189.63 33.9426 188.805 33.4637C188.007 32.9582 187.063 32.7055 185.972 32.7055C184.908 32.7055 183.963 32.9582 183.138 33.4637C182.34 33.9426 181.702 34.621 181.223 35.499C180.771 36.3769 180.544 37.3879 180.544 38.5319C180.544 39.6759 180.771 40.6869 181.223 41.5649C181.702 42.4428 182.34 43.1345 183.138 43.64C183.963 44.1189 184.908 44.3584 185.972 44.3584ZM191.12 48.1096V42.9616L191.878 38.2925L191.12 33.6632V28.9542H195.51V48.1096H191.12ZM200.421 48.1096V28.9542H204.811V48.1096H200.421ZM202.616 25.4424C201.871 25.4424 201.246 25.1896 200.741 24.6841C200.262 24.1787 200.022 23.5534 200.022 22.8085C200.022 22.0636 200.262 21.4384 200.741 20.9329C201.246 20.4274 201.871 20.1746 202.616 20.1746C203.388 20.1746 204.013 20.4274 204.492 20.9329C204.971 21.4384 205.21 22.0636 205.21 22.8085C205.21 23.5534 204.971 24.1787 204.492 24.6841C204.013 25.1896 203.388 25.4424 202.616 25.4424Z" fill="white"/>
<rect x="1.17823" y="1.17823" width="14.7864" height="47.6435" rx="7.3932" fill="white" stroke="white" stroke-width="1.64354"/>
<rect x="39.0725" y="14.0774" width="13.1429" height="33.9228" rx="6.57143" fill="white"/>
<rect x="20.5337" y="21.6353" width="13.1483" height="26.2966" rx="6.57414" fill="white"/>
<rect x="23.1008" y="9.98316" width="8.21768" height="8.21768" rx="4.10884" fill="white" stroke="white" stroke-width="1.64354"/>
</svg>
