<svg width="56" height="51" viewBox="0 0 56 51" fill="none" xmlns="http://www.w3.org/2000/svg">
<path d="M27.94 0C12.5334 0 0 11.3137 0 25.2209C0 39.1281 12.5334 50.4418 27.94 50.4418C43.3466 50.4418 55.88 39.1281 55.88 25.2209C55.88 11.3137 43.3466 0 27.94 0ZM23.2833 14.7122C23.2833 12.3898 25.3672 10.5087 27.94 10.5087C30.5128 10.5087 32.5967 12.3898 32.5967 14.7122V25.2209C32.5967 27.5433 30.5128 29.4244 27.94 29.4244C25.3672 29.4244 23.2833 27.5433 23.2833 25.2209V14.7122ZM30.2683 37.6548V39.9331C30.2683 41.0932 29.2276 42.0348 27.94 42.0348C26.6524 42.0348 25.6117 41.0932 25.6117 39.9331V37.6548C19.0132 36.6522 13.97 31.4588 13.97 25.2209C13.97 24.0607 15.0108 23.1191 16.2983 23.1191C17.5859 23.1191 18.6267 24.0607 18.6267 25.2209C18.6267 29.8573 22.8037 33.6278 27.94 33.6278C33.0763 33.6278 37.2533 29.8573 37.2533 25.2209C37.2533 24.0607 38.2941 23.1191 39.5817 23.1191C40.8692 23.1191 41.91 24.0607 41.91 25.2209C41.91 31.4588 36.8668 36.6522 30.2683 37.6548Z" fill="white"/>
</svg>
